<svg width="21" height="18" viewBox="0 0 21 18" fill="none" xmlns="http://www.w3.org/2000/svg">
<path d="M19.9686 5.7711C19.6912 3.00629 17.5306 1.00036 14.8266 1.00036C13.0251 1.00036 11.3757 1.87839 10.4475 3.28562C9.5278 1.86019 7.94595 1.00003 6.17336 1.00003C3.4697 1.00003 1.30868 3.00596 1.0317 5.77077C1.00978 5.89289 0.919889 6.53561 1.19321 7.58375C1.58712 9.09556 2.49699 10.4707 3.82378 11.5595L10.4431 17.0001L17.1761 11.5599C18.5029 10.4707 19.4128 9.09589 19.8067 7.58375C20.08 6.53594 19.9902 5.89322 19.9686 5.7711ZM19.0953 7.43217C18.7357 8.81292 17.9022 10.0709 16.6872 11.0677L10.4475 16.1098L4.31489 11.069C3.09772 10.0702 2.26459 8.81259 1.90466 7.43184C1.64595 6.43996 1.75229 5.87965 1.75265 5.87601L1.75813 5.84259C1.99565 3.42032 3.85229 1.66194 6.17336 1.66194C7.88602 1.66194 9.39369 2.6151 10.1092 4.14908L10.4457 4.87156L10.7822 4.14908C11.4864 2.6386 13.0737 1.66227 14.8269 1.66227C17.1476 1.66227 19.0047 3.42065 19.2469 5.87436C19.2476 5.87965 19.354 6.44029 19.0953 7.43217Z" fill="#1B1A17" stroke="#1B1A17" stroke-width="0.75"/>
</svg>
