<svg width="179" height="35" viewBox="0 0 179 35" fill="none" xmlns="http://www.w3.org/2000/svg">
<path d="M42.0956 17.17C42.7556 17.17 43.2956 17.27 43.7156 17.47C44.1456 17.66 44.5256 17.885 44.8556 18.145C45.0556 18.295 45.2056 18.315 45.3056 18.205C45.4156 18.085 45.4906 17.81 45.5306 17.38H45.8756C45.8556 17.77 45.8406 18.245 45.8306 18.805C45.8206 19.355 45.8156 20.09 45.8156 21.01H45.4706C45.4206 20.55 45.3556 20.16 45.2756 19.84C45.1956 19.51 45.0856 19.22 44.9456 18.97C44.8056 18.72 44.6056 18.495 44.3456 18.295C44.0956 18.045 43.8056 17.86 43.4756 17.74C43.1456 17.62 42.8006 17.56 42.4406 17.56C41.9006 17.56 41.4406 17.705 41.0606 17.995C40.6806 18.275 40.3706 18.66 40.1306 19.15C39.9006 19.64 39.7306 20.195 39.6206 20.815C39.5106 21.425 39.4556 22.06 39.4556 22.72C39.4556 23.39 39.5106 24.035 39.6206 24.655C39.7406 25.265 39.9206 25.81 40.1606 26.29C40.4106 26.77 40.7306 27.15 41.1206 27.43C41.5106 27.71 41.9706 27.85 42.5006 27.85C42.8306 27.85 43.1606 27.79 43.4906 27.67C43.8306 27.54 44.1206 27.355 44.3606 27.115C44.7506 26.815 45.0156 26.445 45.1556 26.005C45.2956 25.555 45.4006 24.96 45.4706 24.22H45.8156C45.8156 25.17 45.8206 25.94 45.8306 26.53C45.8406 27.11 45.8556 27.6 45.8756 28H45.5306C45.4906 27.57 45.4206 27.3 45.3206 27.19C45.2306 27.08 45.0756 27.095 44.8556 27.235C44.4856 27.495 44.0906 27.725 43.6706 27.925C43.2606 28.115 42.7306 28.21 42.0806 28.21C41.0206 28.21 40.0906 27.995 39.2906 27.565C38.5006 27.135 37.8856 26.515 37.4456 25.705C37.0056 24.895 36.7856 23.92 36.7856 22.78C36.7856 21.66 37.0106 20.68 37.4606 19.84C37.9206 19 38.5456 18.345 39.3356 17.875C40.1356 17.405 41.0556 17.17 42.0956 17.17ZM54.7717 17.17C55.8317 17.17 56.7567 17.385 57.5467 17.815C58.3467 18.245 58.9667 18.865 59.4067 19.675C59.8467 20.475 60.0667 21.45 60.0667 22.6C60.0667 23.72 59.8417 24.7 59.3917 25.54C58.9417 26.38 58.3117 27.035 57.5017 27.505C56.7017 27.975 55.7867 28.21 54.7567 28.21C53.6967 28.21 52.7667 27.995 51.9667 27.565C51.1767 27.135 50.5617 26.515 50.1217 25.705C49.6817 24.895 49.4617 23.92 49.4617 22.78C49.4617 21.66 49.6867 20.68 50.1367 19.84C50.5967 19 51.2217 18.345 52.0117 17.875C52.8117 17.405 53.7317 17.17 54.7717 17.17ZM54.7117 17.44C54.1517 17.44 53.6617 17.665 53.2417 18.115C52.8317 18.565 52.5117 19.185 52.2817 19.975C52.0617 20.765 51.9517 21.68 51.9517 22.72C51.9517 23.78 52.0767 24.705 52.3267 25.495C52.5867 26.275 52.9317 26.88 53.3617 27.31C53.8017 27.73 54.2867 27.94 54.8167 27.94C55.3767 27.94 55.8617 27.715 56.2717 27.265C56.6917 26.815 57.0117 26.195 57.2317 25.405C57.4617 24.605 57.5767 23.69 57.5767 22.66C57.5767 21.59 57.4467 20.665 57.1867 19.885C56.9367 19.105 56.5917 18.505 56.1517 18.085C55.7217 17.655 55.2417 17.44 54.7117 17.44ZM73.0891 17.38V17.68C72.7691 17.72 72.5291 17.805 72.3691 17.935C72.2091 18.055 72.0991 18.25 72.0391 18.52C71.9891 18.79 71.9641 19.17 71.9641 19.66V28.03C71.8441 28.02 71.7191 28.015 71.5891 28.015C71.4691 28.015 71.3391 28.02 71.1991 28.03L64.6891 19.78V25.54C64.6891 26.09 64.7191 26.515 64.7791 26.815C64.8391 27.105 64.9691 27.315 65.1691 27.445C65.3791 27.565 65.7041 27.65 66.1441 27.7V28C65.9541 27.98 65.7041 27.97 65.3941 27.97C65.0841 27.96 64.7941 27.955 64.5241 27.955C64.2941 27.955 64.0591 27.96 63.8191 27.97C63.5791 27.97 63.3791 27.98 63.2191 28V27.7C63.5391 27.65 63.7791 27.565 63.9391 27.445C64.0991 27.325 64.2041 27.13 64.2541 26.86C64.3141 26.58 64.3441 26.2 64.3441 25.72V18.97C64.3441 18.6 64.3141 18.33 64.2541 18.16C64.2041 17.98 64.0941 17.86 63.9241 17.8C63.7641 17.73 63.5291 17.69 63.2191 17.68V17.38C63.3791 17.39 63.5791 17.4 63.8191 17.41C64.0591 17.42 64.2941 17.425 64.5241 17.425C64.7641 17.425 64.9941 17.42 65.2141 17.41C65.4341 17.4 65.6341 17.39 65.8141 17.38L71.6191 24.535V19.84C71.6191 19.29 71.5891 18.87 71.5291 18.58C71.4691 18.28 71.3341 18.065 71.1241 17.935C70.9241 17.805 70.6041 17.72 70.1641 17.68V17.38C70.3541 17.39 70.6041 17.4 70.9141 17.41C71.2241 17.42 71.5141 17.425 71.7841 17.425C72.0241 17.425 72.2591 17.42 72.4891 17.41C72.7291 17.4 72.9291 17.39 73.0891 17.38ZM81.4717 17.17C82.1317 17.17 82.6717 17.27 83.0917 17.47C83.5217 17.66 83.9017 17.885 84.2317 18.145C84.4317 18.295 84.5817 18.315 84.6817 18.205C84.7917 18.085 84.8667 17.81 84.9067 17.38H85.2517C85.2317 17.77 85.2167 18.245 85.2067 18.805C85.1967 19.355 85.1917 20.09 85.1917 21.01H84.8467C84.7967 20.55 84.7317 20.16 84.6517 19.84C84.5717 19.51 84.4617 19.22 84.3217 18.97C84.1817 18.72 83.9817 18.495 83.7217 18.295C83.4717 18.045 83.1817 17.86 82.8517 17.74C82.5217 17.62 82.1767 17.56 81.8167 17.56C81.2767 17.56 80.8167 17.705 80.4367 17.995C80.0567 18.275 79.7467 18.66 79.5067 19.15C79.2767 19.64 79.1067 20.195 78.9967 20.815C78.8867 21.425 78.8317 22.06 78.8317 22.72C78.8317 23.39 78.8867 24.035 78.9967 24.655C79.1167 25.265 79.2967 25.81 79.5367 26.29C79.7867 26.77 80.1067 27.15 80.4967 27.43C80.8867 27.71 81.3467 27.85 81.8767 27.85C82.2067 27.85 82.5367 27.79 82.8667 27.67C83.2067 27.54 83.4967 27.355 83.7367 27.115C84.1267 26.815 84.3917 26.445 84.5317 26.005C84.6717 25.555 84.7767 24.96 84.8467 24.22H85.1917C85.1917 25.17 85.1967 25.94 85.2067 26.53C85.2167 27.11 85.2317 27.6 85.2517 28H84.9067C84.8667 27.57 84.7967 27.3 84.6967 27.19C84.6067 27.08 84.4517 27.095 84.2317 27.235C83.8617 27.495 83.4667 27.725 83.0467 27.925C82.6367 28.115 82.1067 28.21 81.4567 28.21C80.3967 28.21 79.4667 27.995 78.6667 27.565C77.8767 27.135 77.2617 26.515 76.8217 25.705C76.3817 24.895 76.1617 23.92 76.1617 22.78C76.1617 21.66 76.3867 20.68 76.8367 19.84C77.2967 19 77.9217 18.345 78.7117 17.875C79.5117 17.405 80.4317 17.17 81.4717 17.17ZM96.7279 17.38C96.6879 17.82 96.6579 18.245 96.6379 18.655C96.6279 19.065 96.6229 19.38 96.6229 19.6C96.6229 19.8 96.6279 19.99 96.6379 20.17C96.6479 20.35 96.6579 20.5 96.6679 20.62H96.3229C96.2229 19.89 96.0679 19.315 95.8579 18.895C95.6479 18.465 95.3729 18.165 95.0329 17.995C94.7029 17.815 94.3129 17.725 93.8629 17.725H93.2479C92.9579 17.725 92.7379 17.75 92.5879 17.8C92.4379 17.85 92.3379 17.95 92.2879 18.1C92.2379 18.25 92.2129 18.48 92.2129 18.79V26.59C92.2129 26.9 92.2379 27.13 92.2879 27.28C92.3379 27.43 92.4379 27.53 92.5879 27.58C92.7379 27.63 92.9579 27.655 93.2479 27.655H93.9829C94.4329 27.655 94.8279 27.56 95.1679 27.37C95.5179 27.17 95.8129 26.835 96.0529 26.365C96.3029 25.895 96.4929 25.26 96.6229 24.46H96.9679C96.9379 24.78 96.9229 25.2 96.9229 25.72C96.9229 25.95 96.9279 26.275 96.9379 26.695C96.9479 27.115 96.9779 27.55 97.0279 28C96.5179 27.98 95.9429 27.97 95.3029 27.97C94.6629 27.96 94.0929 27.955 93.5929 27.955C93.3429 27.955 93.0229 27.955 92.6329 27.955C92.2429 27.955 91.8229 27.96 91.3729 27.97C90.9229 27.97 90.4679 27.975 90.0079 27.985C89.5479 27.985 89.1129 27.99 88.7029 28V27.7C89.0229 27.68 89.2629 27.64 89.4229 27.58C89.5829 27.52 89.6879 27.4 89.7379 27.22C89.7979 27.04 89.8279 26.77 89.8279 26.41V18.97C89.8279 18.6 89.7979 18.33 89.7379 18.16C89.6879 17.98 89.5779 17.86 89.4079 17.8C89.2479 17.73 89.0129 17.69 88.7029 17.68V17.38C89.1129 17.39 89.5479 17.4 90.0079 17.41C90.4679 17.41 90.9229 17.415 91.3729 17.425C91.8229 17.425 92.2429 17.425 92.6329 17.425C93.0229 17.425 93.3429 17.425 93.5929 17.425C94.0529 17.425 94.5729 17.425 95.1529 17.425C95.7429 17.415 96.2679 17.4 96.7279 17.38ZM94.3879 22.51C94.3879 22.51 94.3879 22.56 94.3879 22.66C94.3879 22.76 94.3879 22.81 94.3879 22.81H91.7629C91.7629 22.81 91.7629 22.76 91.7629 22.66C91.7629 22.56 91.7629 22.51 91.7629 22.51H94.3879ZM94.8229 20.53C94.7829 21.1 94.7629 21.535 94.7629 21.835C94.7729 22.135 94.7779 22.41 94.7779 22.66C94.7779 22.91 94.7829 23.185 94.7929 23.485C94.8029 23.785 94.8279 24.22 94.8679 24.79H94.5229C94.4729 24.44 94.3779 24.115 94.2379 23.815C94.1079 23.515 93.9179 23.275 93.6679 23.095C93.4179 22.905 93.0929 22.81 92.6929 22.81V22.51C92.9929 22.51 93.2479 22.45 93.4579 22.33C93.6679 22.2 93.8379 22.035 93.9679 21.835C94.1079 21.625 94.2179 21.405 94.2979 21.175C94.3779 20.945 94.4379 20.73 94.4779 20.53H94.8229ZM100.31 17.38C100.56 17.39 100.895 17.4 101.315 17.41C101.745 17.42 102.17 17.425 102.59 17.425C103.07 17.425 103.535 17.42 103.985 17.41C104.435 17.4 104.755 17.395 104.945 17.395C105.875 17.395 106.645 17.5 107.255 17.71C107.875 17.91 108.335 18.205 108.635 18.595C108.945 18.985 109.1 19.455 109.1 20.005C109.1 20.345 109.03 20.69 108.89 21.04C108.75 21.38 108.51 21.7 108.17 22C107.84 22.29 107.385 22.525 106.805 22.705C106.225 22.875 105.495 22.96 104.615 22.96H103.175V22.66H104.465C105.055 22.66 105.5 22.55 105.8 22.33C106.11 22.1 106.32 21.8 106.43 21.43C106.55 21.05 106.61 20.63 106.61 20.17C106.61 19.38 106.47 18.77 106.19 18.34C105.91 17.9 105.43 17.68 104.75 17.68C104.36 17.68 104.105 17.765 103.985 17.935C103.875 18.105 103.82 18.45 103.82 18.97V26.41C103.82 26.77 103.845 27.04 103.895 27.22C103.955 27.4 104.065 27.52 104.225 27.58C104.385 27.64 104.625 27.68 104.945 27.7V28C104.675 27.98 104.335 27.97 103.925 27.97C103.515 27.96 103.1 27.955 102.68 27.955C102.2 27.955 101.745 27.96 101.315 27.97C100.895 27.97 100.56 27.98 100.31 28V27.7C100.63 27.68 100.87 27.64 101.03 27.58C101.19 27.52 101.295 27.4 101.345 27.22C101.405 27.04 101.435 26.77 101.435 26.41V18.97C101.435 18.6 101.405 18.33 101.345 18.16C101.295 17.98 101.185 17.86 101.015 17.8C100.855 17.73 100.62 17.69 100.31 17.68V17.38ZM103.145 22.705C103.575 22.715 103.945 22.735 104.255 22.765C104.575 22.795 104.855 22.825 105.095 22.855C105.335 22.875 105.55 22.89 105.74 22.9C106.65 22.98 107.32 23.175 107.75 23.485C108.19 23.795 108.475 24.26 108.605 24.88L108.95 26.425C109.04 26.825 109.135 27.105 109.235 27.265C109.335 27.425 109.48 27.505 109.67 27.505C109.8 27.495 109.905 27.465 109.985 27.415C110.075 27.355 110.17 27.27 110.27 27.16L110.48 27.34C110.21 27.65 109.92 27.87 109.61 28C109.3 28.14 108.925 28.21 108.485 28.21C107.945 28.21 107.5 28.095 107.15 27.865C106.8 27.635 106.57 27.21 106.46 26.59L106.19 25.09C106.12 24.67 106.035 24.305 105.935 23.995C105.835 23.675 105.695 23.425 105.515 23.245C105.345 23.055 105.105 22.96 104.795 22.96H103.175L103.145 22.705ZM122.68 17.38V17.68C122.36 17.72 122.12 17.805 121.96 17.935C121.8 18.055 121.69 18.25 121.63 18.52C121.58 18.79 121.555 19.17 121.555 19.66V28.03C121.435 28.02 121.31 28.015 121.18 28.015C121.06 28.015 120.93 28.02 120.79 28.03L114.28 19.78V25.54C114.28 26.09 114.31 26.515 114.37 26.815C114.43 27.105 114.56 27.315 114.76 27.445C114.97 27.565 115.295 27.65 115.735 27.7V28C115.545 27.98 115.295 27.97 114.985 27.97C114.675 27.96 114.385 27.955 114.115 27.955C113.885 27.955 113.65 27.96 113.41 27.97C113.17 27.97 112.97 27.98 112.81 28V27.7C113.13 27.65 113.37 27.565 113.53 27.445C113.69 27.325 113.795 27.13 113.845 26.86C113.905 26.58 113.935 26.2 113.935 25.72V18.97C113.935 18.6 113.905 18.33 113.845 18.16C113.795 17.98 113.685 17.86 113.515 17.8C113.355 17.73 113.12 17.69 112.81 17.68V17.38C112.97 17.39 113.17 17.4 113.41 17.41C113.65 17.42 113.885 17.425 114.115 17.425C114.355 17.425 114.585 17.42 114.805 17.41C115.025 17.4 115.225 17.39 115.405 17.38L121.21 24.535V19.84C121.21 19.29 121.18 18.87 121.12 18.58C121.06 18.28 120.925 18.065 120.715 17.935C120.515 17.805 120.195 17.72 119.755 17.68V17.38C119.945 17.39 120.195 17.4 120.505 17.41C120.815 17.42 121.105 17.425 121.375 17.425C121.615 17.425 121.85 17.42 122.08 17.41C122.32 17.4 122.52 17.39 122.68 17.38ZM140.09 17.38C140.05 17.89 140.02 18.38 140 18.85C139.99 19.32 139.985 19.68 139.985 19.93C139.985 20.15 139.99 20.36 140 20.56C140.01 20.76 140.02 20.93 140.03 21.07H139.685C139.525 20.23 139.32 19.565 139.07 19.075C138.83 18.585 138.54 18.24 138.2 18.04C137.86 17.83 137.46 17.725 137 17.725H136.655V26.29C136.655 26.69 136.695 26.99 136.775 27.19C136.865 27.39 137.025 27.525 137.255 27.595C137.485 27.655 137.82 27.69 138.26 27.7V28C137.95 27.99 137.535 27.98 137.015 27.97C136.505 27.96 135.97 27.955 135.41 27.955C134.86 27.955 134.34 27.96 133.85 27.97C133.36 27.98 132.965 27.99 132.665 28V27.7C133.115 27.69 133.455 27.655 133.685 27.595C133.915 27.525 134.07 27.39 134.15 27.19C134.23 26.99 134.27 26.69 134.27 26.29V17.725H133.94C133.48 17.725 133.08 17.83 132.74 18.04C132.4 18.24 132.11 18.585 131.87 19.075C131.63 19.555 131.42 20.22 131.24 21.07H130.895C130.915 20.93 130.925 20.76 130.925 20.56C130.935 20.36 130.94 20.15 130.94 19.93C130.94 19.68 130.93 19.32 130.91 18.85C130.9 18.38 130.875 17.89 130.835 17.38C131.295 17.39 131.795 17.4 132.335 17.41C132.885 17.42 133.435 17.425 133.985 17.425C134.535 17.425 135.03 17.425 135.47 17.425C135.92 17.425 136.415 17.425 136.955 17.425C137.505 17.425 138.055 17.42 138.605 17.41C139.155 17.4 139.65 17.39 140.09 17.38ZM147.725 17.38V17.68C147.405 17.69 147.16 17.73 146.99 17.8C146.83 17.86 146.725 17.98 146.675 18.16C146.625 18.33 146.6 18.6 146.6 18.97V26.41C146.6 26.77 146.625 27.04 146.675 27.22C146.735 27.4 146.845 27.52 147.005 27.58C147.165 27.64 147.405 27.68 147.725 27.7V28C147.455 27.98 147.115 27.97 146.705 27.97C146.295 27.96 145.88 27.955 145.46 27.955C144.97 27.955 144.515 27.96 144.095 27.97C143.685 27.97 143.35 27.98 143.09 28V27.7C143.41 27.68 143.65 27.64 143.81 27.58C143.97 27.52 144.075 27.4 144.125 27.22C144.185 27.04 144.215 26.77 144.215 26.41V18.97C144.215 18.6 144.185 18.33 144.125 18.16C144.075 17.98 143.965 17.86 143.795 17.8C143.635 17.73 143.4 17.69 143.09 17.68V17.38C143.35 17.39 143.685 17.4 144.095 17.41C144.515 17.42 144.97 17.425 145.46 17.425C145.88 17.425 146.295 17.42 146.705 17.41C147.115 17.4 147.455 17.39 147.725 17.38ZM163.729 17.38V17.68C163.409 17.69 163.169 17.73 163.009 17.8C162.849 17.86 162.739 17.98 162.679 18.16C162.629 18.33 162.604 18.6 162.604 18.97V26.41C162.604 26.77 162.629 27.04 162.679 27.22C162.739 27.4 162.849 27.52 163.009 27.58C163.169 27.64 163.409 27.68 163.729 27.7V28C163.449 27.98 163.094 27.97 162.664 27.97C162.244 27.96 161.814 27.955 161.374 27.955C160.894 27.955 160.444 27.96 160.024 27.97C159.604 27.97 159.264 27.98 159.004 28V27.7C159.344 27.68 159.599 27.64 159.769 27.58C159.949 27.52 160.069 27.4 160.129 27.22C160.189 27.04 160.219 26.77 160.219 26.41V18.295H160.324L156.604 28.015H156.364L152.314 18.355V25.54C152.314 26.09 152.344 26.515 152.404 26.815C152.464 27.105 152.594 27.315 152.794 27.445C153.004 27.565 153.329 27.65 153.769 27.7V28C153.579 27.98 153.329 27.97 153.019 27.97C152.709 27.96 152.419 27.955 152.149 27.955C151.919 27.955 151.684 27.96 151.444 27.97C151.204 27.97 151.004 27.98 150.844 28V27.7C151.164 27.65 151.404 27.565 151.564 27.445C151.724 27.325 151.829 27.13 151.879 26.86C151.939 26.58 151.969 26.2 151.969 25.72V18.97C151.969 18.6 151.939 18.33 151.879 18.16C151.829 17.98 151.719 17.86 151.549 17.8C151.389 17.73 151.154 17.69 150.844 17.68V17.38C151.004 17.39 151.204 17.4 151.444 17.41C151.684 17.42 151.919 17.425 152.149 17.425C152.579 17.425 152.999 17.42 153.409 17.41C153.829 17.4 154.199 17.39 154.519 17.38L157.669 24.985L157.294 25.33L160.309 17.425C160.479 17.425 160.654 17.425 160.834 17.425C161.014 17.425 161.194 17.425 161.374 17.425C161.814 17.425 162.244 17.42 162.664 17.41C163.094 17.4 163.449 17.39 163.729 17.38ZM174.856 17.38C174.816 17.82 174.786 18.245 174.766 18.655C174.756 19.065 174.751 19.38 174.751 19.6C174.751 19.8 174.756 19.99 174.766 20.17C174.776 20.35 174.786 20.5 174.796 20.62H174.451C174.351 19.89 174.196 19.315 173.986 18.895C173.776 18.465 173.501 18.165 173.161 17.995C172.831 17.815 172.441 17.725 171.991 17.725H171.376C171.086 17.725 170.866 17.75 170.716 17.8C170.566 17.85 170.466 17.95 170.416 18.1C170.366 18.25 170.341 18.48 170.341 18.79V26.59C170.341 26.9 170.366 27.13 170.416 27.28C170.466 27.43 170.566 27.53 170.716 27.58C170.866 27.63 171.086 27.655 171.376 27.655H172.111C172.561 27.655 172.956 27.56 173.296 27.37C173.646 27.17 173.941 26.835 174.181 26.365C174.431 25.895 174.621 25.26 174.751 24.46H175.096C175.066 24.78 175.051 25.2 175.051 25.72C175.051 25.95 175.056 26.275 175.066 26.695C175.076 27.115 175.106 27.55 175.156 28C174.646 27.98 174.071 27.97 173.431 27.97C172.791 27.96 172.221 27.955 171.721 27.955C171.471 27.955 171.151 27.955 170.761 27.955C170.371 27.955 169.951 27.96 169.501 27.97C169.051 27.97 168.596 27.975 168.136 27.985C167.676 27.985 167.241 27.99 166.831 28V27.7C167.151 27.68 167.391 27.64 167.551 27.58C167.711 27.52 167.816 27.4 167.866 27.22C167.926 27.04 167.956 26.77 167.956 26.41V18.97C167.956 18.6 167.926 18.33 167.866 18.16C167.816 17.98 167.706 17.86 167.536 17.8C167.376 17.73 167.141 17.69 166.831 17.68V17.38C167.241 17.39 167.676 17.4 168.136 17.41C168.596 17.41 169.051 17.415 169.501 17.425C169.951 17.425 170.371 17.425 170.761 17.425C171.151 17.425 171.471 17.425 171.721 17.425C172.181 17.425 172.701 17.425 173.281 17.425C173.871 17.415 174.396 17.4 174.856 17.38ZM172.516 22.51C172.516 22.51 172.516 22.56 172.516 22.66C172.516 22.76 172.516 22.81 172.516 22.81H169.891C169.891 22.81 169.891 22.76 169.891 22.66C169.891 22.56 169.891 22.51 169.891 22.51H172.516ZM172.951 20.53C172.911 21.1 172.891 21.535 172.891 21.835C172.901 22.135 172.906 22.41 172.906 22.66C172.906 22.91 172.911 23.185 172.921 23.485C172.931 23.785 172.956 24.22 172.996 24.79H172.651C172.601 24.44 172.506 24.115 172.366 23.815C172.236 23.515 172.046 23.275 171.796 23.095C171.546 22.905 171.221 22.81 170.821 22.81V22.51C171.121 22.51 171.376 22.45 171.586 22.33C171.796 22.2 171.966 22.035 172.096 21.835C172.236 21.625 172.346 21.405 172.426 21.175C172.506 20.945 172.566 20.73 172.606 20.53H172.951Z" fill="#444240"/>
<path d="M28.6939 11.519C29.7781 13.4371 30.2327 15.5146 30.1255 17.5425C29.9184 21.4607 27.6133 25.195 23.6829 27.1942C21.3866 28.3622 18.8785 28.764 16.4806 28.4969C12.6418 28.0694 9.09787 25.9318 7.14626 22.4792C3.97696 16.8724 6.18231 9.84314 12.1572 6.80398C13.5782 6.08119 15.0795 5.65219 16.585 5.49307C18.7917 5.25983 21.0094 5.60623 22.9966 6.46042C25.3515 7.47265 27.3812 9.19674 28.6939 11.519Z" fill="#444240" stroke="url(#paint0_linear_23_24)" stroke-width="2"/>
<defs>
<linearGradient id="paint0_linear_23_24" x1="5.18036" y1="15.3379" x2="33.0404" y2="17.1817" gradientUnits="userSpaceOnUse">
<stop offset="0.288448" stop-color="white"/>
<stop offset="0.780176" stop-color="white" stop-opacity="0"/>
</linearGradient>
</defs>
</svg>
