<svg width="16" height="16" viewBox="0 0 16 16" fill="none" xmlns="http://www.w3.org/2000/svg">
<path d="M15.8041 14.8638L11.9576 11.0172C12.911 9.85478 13.4857 8.36579 13.4857 6.74293C13.4857 3.02046 10.4653 3.05176e-05 6.74286 3.05176e-05C3.01714 3.05176e-05 0 3.02046 0 6.74293C0 10.4654 3.01714 13.4858 6.74286 13.4858C8.36571 13.4858 9.85143 12.9144 11.0139 11.9609L14.8604 15.8042C15.1216 16.0654 15.5429 16.0654 15.8041 15.8042C16.0653 15.5462 16.0653 15.1217 15.8041 14.8638ZM6.74286 12.1438C3.76163 12.1438 1.33878 9.7209 1.33878 6.74293C1.33878 3.76495 3.76163 1.33881 6.74286 1.33881C9.72082 1.33881 12.1469 3.76495 12.1469 6.74293C12.1469 9.7209 9.72082 12.1438 6.74286 12.1438Z" fill="#1B1A17"/>
</svg>
